#Comment line ignore any data following # character 
#Hierarchical Translation and Rotation (.htr) file 
[Header]	
#Header keywords are followed by a single value 
FileType HTR		#Single word string
DataType HTRS		#Translation followed by rotation and scale data
FileVersion 1		#integer
NumSegments 84		#integer
NumFrames 2		#integer
DataFrameRate 30		#integer, data frame rate in this file
EulerRotationOrder ZYX
CalibrationUnits mm
RotationUnits Degrees
GlobalAxisofGravity Y
BoneLengthAxis Y
ScaleFactor 1.00
[SegmentNames&Hierarchy]
#CHILD	PARENT
MASTER GLOBAL
root MASTER
chest root
L_mid_tent01 root
R_mid_tent01 root
spine01 root
Bip01_Neck chest
L_humerus chest
R_humerus chest
weapon_bone chest
Bip01_Head Bip01_Neck
eye_left_bone Bip01_Head
eye_right_bone Bip01_Head
L_forearm L_humerus
L_front_hand L_forearm
L_weapon_bone L_forearm
L_front_hand01_01 L_front_hand
L_front_hand02_01 L_front_hand
L_front_hand03_01 L_front_hand
L_front_hand01_02 L_front_hand01_01
L_front_hand02_02 L_front_hand02_01
L_front_hand03_02 L_front_hand03_01
R_forearm R_humerus
R_front_hand R_forearm
R_weapon_bone R_forearm
R_front_hand01_01 R_front_hand
R_front_hand02_01 R_front_hand
R_front_hand03_01 R_front_hand
R_front_hand01_02 R_front_hand01_01
R_front_hand02_02 R_front_hand02_01
R_front_hand03_02 R_front_hand03_01
null_rope01_connect L_mid_tent01
Rope1_Seg01 null_rope01_connect
Rope1_Seg02 Rope1_Seg01
Rope1_Seg03 Rope1_Seg02
Rope1_Seg04 Rope1_Seg03
Rope1_Seg05 Rope1_Seg04
Rope1_Seg06 Rope1_Seg05
Rope1_Seg07 Rope1_Seg06
Rope1_Seg09 Rope1_Seg07
L_mid_hand01 Rope1_Seg09
L_mid_hand02 Rope1_Seg09
L_mid_hand03 Rope1_Seg09
null_rope02_connect R_mid_tent01
Rope2_Seg01 null_rope02_connect
Rope2_Seg02 Rope2_Seg01
Rope2_Seg03 Rope2_Seg02
Rope2_Seg04 Rope2_Seg03
Rope2_Seg05 Rope2_Seg04
Rope2_Seg06 Rope2_Seg05
Rope2_Seg07 Rope2_Seg06
Rope2_Seg09 Rope2_Seg07
R_mid_hand01 Rope2_Seg09
R_mid_hand02 Rope2_Seg09
R_mid_hand03 Rope2_Seg09
spine02 spine01
spine03 spine02
pelvis spine03
null_rope03_connect pelvis
null_rope04_connect pelvis
Rope3_Seg01 null_rope03_connect
Rope3_Seg02 Rope3_Seg01
Rope3_Seg03 Rope3_Seg02
Rope3_Seg04 Rope3_Seg03
Rope3_Seg05 Rope3_Seg04
Rope3_Seg06 Rope3_Seg05
Rope3_Seg07 Rope3_Seg06
Rope3_Seg08 Rope3_Seg07
Rope3_Seg09 Rope3_Seg08
R_rear_hand01 Rope3_Seg09
R_rear_hand02 Rope3_Seg09
R_rear_hand03 Rope3_Seg09
Rope4_Seg01 null_rope04_connect
Rope4_Seg02 Rope4_Seg01
Rope4_Seg03 Rope4_Seg02
Rope4_Seg04 Rope4_Seg03
Rope4_Seg05 Rope4_Seg04
Rope4_Seg06 Rope4_Seg05
Rope4_Seg07 Rope4_Seg06
Rope4_Seg08 Rope4_Seg07
Rope4_Seg09 Rope4_Seg08
L_rear_hand01 Rope4_Seg09
L_rear_hand02 Rope4_Seg09
L_rear_hand03 Rope4_Seg09
[BasePosition]
#SegmentName Tx, Ty, Tz, Rx, Ry, Rz, BoneLength
MASTER 0.000000 0.000000 0.000000 -90.000000 0.000000 0.000000 10.000000 
root 0.000000 0.000000 0.000000 0.000000 0.000000 0.000000 10.000000 
chest 0.000000 0.000000 0.000000 0.000000 0.000000 0.000000 10.000000 
L_mid_tent01 0.000000 0.000000 0.000000 0.000000 0.000000 0.000000 10.000000 
R_mid_tent01 0.000000 0.000000 0.000000 0.000000 0.000000 0.000000 10.000000 
spine01 0.000000 0.000000 0.000000 0.000000 0.000000 0.000000 10.000000 
Bip01_Neck 0.000000 0.000000 0.000000 0.000000 0.000000 0.000000 10.000000 
L_humerus 0.000000 0.000000 0.000000 0.000000 0.000000 0.000000 10.000000 
R_humerus 0.000000 0.000000 0.000000 0.000000 0.000000 0.000000 10.000000 
weapon_bone 0.000000 0.000000 0.000000 0.000000 0.000000 0.000000 10.000000 
Bip01_Head 0.000000 0.000000 0.000000 0.000000 0.000000 0.000000 10.000000 
eye_left_bone 0.000000 0.000000 0.000000 0.000000 0.000000 0.000000 10.000000 
eye_right_bone 0.000000 0.000000 0.000000 0.000000 0.000000 0.000000 10.000000 
L_forearm 0.000000 0.000000 0.000000 0.000000 0.000000 0.000000 10.000000 
L_front_hand 0.000000 0.000000 0.000000 0.000000 0.000000 0.000000 10.000000 
L_weapon_bone 0.000000 0.000000 0.000000 0.000000 0.000000 0.000000 10.000000 
L_front_hand01_01 0.000000 0.000000 0.000000 0.000000 0.000000 0.000000 10.000000 
L_front_hand02_01 0.000000 0.000000 0.000000 0.000000 0.000000 0.000000 10.000000 
L_front_hand03_01 0.000000 0.000000 0.000000 0.000000 0.000000 0.000000 10.000000 
L_front_hand01_02 0.000000 0.000000 0.000000 0.000000 0.000000 0.000000 10.000000 
L_front_hand02_02 0.000000 0.000000 0.000000 0.000000 0.000000 0.000000 10.000000 
L_front_hand03_02 0.000000 0.000000 0.000000 0.000000 0.000000 0.000000 10.000000 
R_forearm 0.000000 0.000000 0.000000 0.000000 0.000000 0.000000 10.000000 
R_front_hand 0.000000 0.000000 0.000000 0.000000 0.000000 0.000000 10.000000 
R_weapon_bone 0.000000 0.000000 0.000000 0.000000 0.000000 0.000000 10.000000 
R_front_hand01_01 0.000000 0.000000 0.000000 0.000000 0.000000 0.000000 10.000000 
R_front_hand02_01 0.000000 0.000000 0.000000 0.000000 0.000000 0.000000 10.000000 
R_front_hand03_01 0.000000 0.000000 0.000000 0.000000 0.000000 0.000000 10.000000 
R_front_hand01_02 0.000000 0.000000 0.000000 0.000000 0.000000 0.000000 10.000000 
R_front_hand02_02 0.000000 0.000000 0.000000 0.000000 0.000000 0.000000 10.000000 
R_front_hand03_02 0.000000 0.000000 0.000000 0.000000 0.000000 0.000000 10.000000 
null_rope01_connect 0.000000 0.000000 0.000000 0.000000 0.000000 0.000000 10.000000 
Rope1_Seg01 0.000000 0.000000 0.000000 0.000000 0.000000 0.000000 10.000000 
Rope1_Seg02 0.000000 0.000000 0.000000 0.000000 0.000000 0.000000 10.000000 
Rope1_Seg03 0.000000 0.000000 0.000000 0.000000 0.000000 0.000000 10.000000 
Rope1_Seg04 0.000000 0.000000 0.000000 0.000000 0.000000 0.000000 10.000000 
Rope1_Seg05 0.000000 0.000000 0.000000 0.000000 0.000000 0.000000 10.000000 
Rope1_Seg06 0.000000 0.000000 0.000000 0.000000 0.000000 0.000000 10.000000 
Rope1_Seg07 0.000000 0.000000 0.000000 0.000000 0.000000 0.000000 10.000000 
Rope1_Seg09 0.000000 0.000000 0.000000 0.000000 0.000000 0.000000 10.000000 
L_mid_hand01 0.000000 0.000000 0.000000 0.000000 0.000000 0.000000 10.000000 
L_mid_hand02 0.000000 0.000000 0.000000 0.000000 0.000000 0.000000 10.000000 
L_mid_hand03 0.000000 0.000000 0.000000 0.000000 0.000000 0.000000 10.000000 
null_rope02_connect 0.000000 0.000000 0.000000 0.000000 0.000000 0.000000 10.000000 
Rope2_Seg01 0.000000 0.000000 0.000000 0.000000 0.000000 0.000000 10.000000 
Rope2_Seg02 0.000000 0.000000 0.000000 0.000000 0.000000 0.000000 10.000000 
Rope2_Seg03 0.000000 0.000000 0.000000 0.000000 0.000000 0.000000 10.000000 
Rope2_Seg04 0.000000 0.000000 0.000000 0.000000 0.000000 0.000000 10.000000 
Rope2_Seg05 0.000000 0.000000 0.000000 0.000000 0.000000 0.000000 10.000000 
Rope2_Seg06 0.000000 0.000000 0.000000 0.000000 0.000000 0.000000 10.000000 
Rope2_Seg07 0.000000 0.000000 0.000000 0.000000 0.000000 0.000000 10.000000 
Rope2_Seg09 0.000000 0.000000 0.000000 0.000000 0.000000 0.000000 10.000000 
R_mid_hand01 0.000000 0.000000 0.000000 0.000000 0.000000 0.000000 10.000000 
R_mid_hand02 0.000000 0.000000 0.000000 0.000000 0.000000 0.000000 10.000000 
R_mid_hand03 0.000000 0.000000 0.000000 0.000000 0.000000 0.000000 10.000000 
spine02 0.000000 0.000000 0.000000 0.000000 0.000000 0.000000 10.000000 
spine03 0.000000 0.000000 0.000000 0.000000 0.000000 0.000000 10.000000 
pelvis 0.000000 0.000000 0.000000 0.000000 0.000000 0.000000 10.000000 
null_rope03_connect 0.000000 0.000000 0.000000 0.000000 0.000000 0.000000 10.000000 
null_rope04_connect 0.000000 0.000000 0.000000 0.000000 0.000000 0.000000 10.000000 
Rope3_Seg01 0.000000 0.000000 0.000000 0.000000 0.000000 0.000000 10.000000 
Rope3_Seg02 0.000000 0.000000 0.000000 0.000000 0.000000 0.000000 10.000000 
Rope3_Seg03 0.000000 0.000000 0.000000 0.000000 0.000000 0.000000 10.000000 
Rope3_Seg04 0.000000 0.000000 0.000000 0.000000 0.000000 0.000000 10.000000 
Rope3_Seg05 0.000000 0.000000 0.000000 0.000000 0.000000 0.000000 10.000000 
Rope3_Seg06 0.000000 0.000000 0.000000 0.000000 0.000000 0.000000 10.000000 
Rope3_Seg07 0.000000 0.000000 0.000000 0.000000 0.000000 0.000000 10.000000 
Rope3_Seg08 0.000000 0.000000 0.000000 0.000000 0.000000 0.000000 10.000000 
Rope3_Seg09 0.000000 0.000000 0.000000 0.000000 0.000000 0.000000 10.000000 
R_rear_hand01 0.000000 0.000000 0.000000 0.000000 0.000000 0.000000 10.000000 
R_rear_hand02 0.000000 0.000000 0.000000 0.000000 0.000000 0.000000 10.000000 
R_rear_hand03 0.000000 0.000000 0.000000 0.000000 0.000000 0.000000 10.000000 
Rope4_Seg01 0.000000 0.000000 0.000000 0.000000 0.000000 0.000000 10.000000 
Rope4_Seg02 0.000000 0.000000 0.000000 0.000000 0.000000 0.000000 10.000000 
Rope4_Seg03 0.000000 0.000000 0.000000 0.000000 0.000000 0.000000 10.000000 
Rope4_Seg04 0.000000 0.000000 0.000000 0.000000 0.000000 0.000000 10.000000 
Rope4_Seg05 0.000000 0.000000 0.000000 0.000000 0.000000 0.000000 10.000000 
Rope4_Seg06 0.000000 0.000000 0.000000 0.000000 0.000000 0.000000 10.000000 
Rope4_Seg07 0.000000 0.000000 0.000000 0.000000 0.000000 0.000000 10.000000 
Rope4_Seg08 0.000000 0.000000 0.000000 0.000000 0.000000 0.000000 10.000000 
Rope4_Seg09 0.000000 0.000000 0.000000 0.000000 0.000000 0.000000 10.000000 
L_rear_hand01 0.000000 0.000000 0.000000 0.000000 0.000000 0.000000 10.000000 
L_rear_hand02 0.000000 0.000000 0.000000 0.000000 0.000000 0.000000 10.000000 
L_rear_hand03 0.000000 0.000000 0.000000 0.000000 0.000000 0.000000 10.000000 
#Beginning of Data. Separated by tabs
#Fr	Tx	Ty	Tz	Rx	Ry	Rz	SF
[MASTER]
25 5595.315918 0.000845 0.000000 0.001950 0.001306 22.399626 5595.315918
26 5623.176270 0.000849 0.000000 0.001951 0.001305 22.450048 5623.176270
[root]
25 -16.502890 -62.822067 1500.000000 -91.629700 -27.676081 -90.148109 1501.405640
26 -16.503294 -62.821960 1500.000000 -91.629723 -27.676090 -90.148125 1501.405640
[chest]
25 -84.512650 -34.090519 0.000000 -4.772051 3.755643 179.633804 91.129311
26 -84.512650 -34.090519 0.000000 -5.203234 1.503577 -178.039886 91.129311
[L_mid_tent01]
25 27.299789 22.177504 -249.918198 3.862628 36.229202 81.347610 252.381104
26 27.299805 22.177504 -249.918213 3.862628 36.229202 81.347610 252.381134
[R_mid_tent01]
25 23.228794 24.509907 226.238495 160.562332 -47.529808 87.788780 228.744751
26 23.228794 24.509907 226.238495 160.432037 -47.061249 87.899780 228.744751
[spine01]
25 -0.361383 -0.195265 0.000000 -0.419415 0.320593 11.076404 0.410763
26 -0.361383 -0.195265 0.000000 -0.419415 0.320593 11.076404 0.410763
[Bip01_Neck]
25 165.484543 71.581718 0.000119 175.896118 1.177290 24.871183 180.302734
26 165.484543 71.581718 0.000119 175.896118 1.177290 24.871187 180.302734
[L_humerus]
25 -13.983130 -135.272980 -120.471481 170.940796 81.564224 -99.189163 181.680161
26 -13.983130 -135.272980 -120.471481 170.940842 81.564316 -99.189255 181.680161
[R_humerus]
25 -13.983309 -135.273102 125.287651 -159.666046 -68.957870 -101.166077 184.909012
26 -13.983309 -135.273102 125.287651 -159.666061 -68.957893 -101.166092 184.909012
[weapon_bone]
25 235.964890 -300.705902 0.000000 0.000000 -89.951546 -128.212341 382.234833
26 235.964890 -300.705902 0.000000 0.000000 -89.951546 -128.212341 382.234833
[Bip01_Head]
25 250.858246 122.464188 -0.291768 1.168686 6.252616 -61.086330 279.154846
26 261.355591 108.959503 -2.863770 2.248029 5.843378 -62.458359 283.173279
[eye_left_bone]
25 -24.626970 125.451866 -64.772606 0.000000 -90.000000 -99.840431 143.318359
26 -24.626970 125.451866 -64.772606 0.000000 -90.000000 -99.840431 143.318359
[eye_right_bone]
25 -24.626970 125.451866 64.327362 0.000000 -89.960434 80.159386 143.117676
26 -24.626970 125.451866 64.327362 0.000000 -90.000000 80.159393 143.117676
[L_forearm]
25 322.776093 0.000000 -0.000119 0.000183 0.002340 -81.045212 322.776093
26 322.776093 0.000000 -0.000119 0.000183 0.002340 -81.045219 322.776093
[L_front_hand]
25 241.149185 -0.042021 -3.300071 -177.732910 -0.049191 -80.028023 241.171753
26 241.149185 -0.042021 -3.300071 -177.732910 -0.049191 -80.028046 241.171753
[L_weapon_bone]
25 156.183838 0.000000 0.000000 0.001660 0.001660 0.001660 156.183838
26 156.183838 0.000000 0.000000 0.001660 0.001660 0.001660 156.183838
[L_front_hand01_01]
25 86.095154 20.947098 -0.655860 0.405585 -0.442306 -4.620490 88.609184
26 86.095154 20.947098 -0.655860 0.405585 -0.442306 -4.620491 88.609184
[L_front_hand02_01]
25 86.935165 -11.437475 24.513514 116.959450 3.630817 1.495453 91.046425
26 86.935165 -11.437475 24.513514 116.959465 3.630819 1.495453 91.046425
[L_front_hand03_01]
25 86.637497 -14.123976 -20.424902 -118.420097 -4.656303 -0.152527 90.126129
26 86.637497 -14.123976 -20.424902 -118.420113 -4.656304 -0.152527 90.126129
[L_front_hand01_02]
25 71.020905 -0.000179 0.000030 0.001534 0.001777 -8.378850 71.020905
26 71.020905 -0.000179 0.000030 0.001534 0.001777 -8.378851 71.020905
[L_front_hand02_02]
25 71.020927 -0.000119 0.000060 0.001534 0.001777 -8.378850 71.020927
26 71.020927 -0.000119 0.000060 0.001534 0.001777 -8.378851 71.020927
[L_front_hand03_02]
25 71.020905 -0.000060 0.000060 0.001534 0.001777 -8.378850 71.020905
26 71.020905 -0.000060 0.000060 0.001534 0.001777 -8.378851 71.020905
[R_forearm]
25 322.776428 -0.000060 0.000030 0.202513 -0.063871 -72.666046 322.776428
26 322.776428 -0.000060 0.000030 0.202513 -0.063871 -72.666046 322.776428
[R_front_hand]
25 238.847015 -0.006795 2.210259 -1.676069 -0.420464 -92.752876 238.857239
26 238.847015 -0.006795 2.210259 -1.676069 -0.420464 -92.752892 238.857239
[R_weapon_bone]
25 155.664093 0.002503 -0.000030 0.003487 0.001180 -90.988930 155.664078
26 155.664093 0.002503 -0.000030 0.003487 0.001180 -90.988930 155.664078
[R_front_hand01_01]
25 87.624611 14.231146 22.918642 -116.960213 3.496675 -1.324139 91.683487
26 87.624611 14.231146 22.918642 -116.960213 3.496675 -1.324139 91.683487
[R_front_hand02_01]
25 89.356956 14.367283 -19.491137 118.419647 -4.257089 0.609827 92.579636
26 89.356956 14.367283 -19.491137 118.419647 -4.257089 0.609828 92.579636
[R_front_hand03_01]
25 87.286232 -22.307278 -0.143439 -0.387970 -0.231462 4.232001 90.091743
26 87.286232 -22.307278 -0.143439 -0.387970 -0.231462 4.232001 90.091743
[R_front_hand01_02]
25 71.020905 0.000060 0.000119 0.001777 0.001534 8.377220 71.020905
26 71.020905 0.000060 0.000119 0.001777 0.001534 8.377221 71.020905
[R_front_hand02_02]
25 71.020844 -0.000030 -0.000119 0.001777 0.001534 8.377220 71.020836
26 71.020844 -0.000030 -0.000119 0.001777 0.001534 8.377221 71.020836
[R_front_hand03_02]
25 71.020905 0.000000 0.000030 0.001777 0.001534 8.377220 71.020905
26 71.020905 0.000000 0.000030 0.001777 0.001534 8.377221 71.020905
[null_rope01_connect]
25 328.732483 0.000000 -0.000238 -169.443451 -62.420990 -147.342850 328.732483
26 328.732483 0.000000 -0.000238 -169.543961 -62.428967 -147.227646 328.732483
[Rope1_Seg01]
25 0.000000 0.000000 0.000000 124.517860 48.563393 154.311356 0.000000
26 0.000000 0.000000 0.000000 123.626656 47.137280 153.765106 0.000000
[Rope1_Seg02]
25 139.999863 -0.000179 0.000000 -0.243047 -5.693279 6.112302 139.999863
26 139.999863 -0.000179 0.000000 -0.214448 -6.126412 6.256721 139.999863
[Rope1_Seg03]
25 139.999924 0.000060 -0.000060 -0.620508 -8.973042 8.989146 139.999924
26 139.999924 0.000060 -0.000060 -0.621812 -9.709405 8.788888 139.999924
[Rope1_Seg04]
25 139.999924 -0.000060 -0.000119 -2.340796 -15.211711 14.342978 139.999924
26 139.999924 -0.000060 -0.000119 -2.503718 -15.534044 14.312294 139.999924
[Rope1_Seg05]
25 139.999832 0.000119 -0.000060 2.919730 -7.118798 17.782764 139.999832
26 139.999832 0.000119 -0.000060 4.325664 -5.147449 17.730129 139.999832
[Rope1_Seg06]
25 139.999954 0.000119 -0.000060 3.244440 -1.573328 7.116762 139.999954
26 139.999954 0.000119 -0.000060 3.616512 -1.014728 7.060181 139.999954
[Rope1_Seg07]
25 139.999985 0.000060 0.000000 1.837198 -1.068324 3.764366 139.999985
26 139.999985 0.000060 0.000000 2.086251 -0.719909 3.748646 139.999985
[Rope1_Seg09]
25 121.602913 0.000119 -0.000089 -89.793175 -1.359789 0.847147 121.602913
26 121.602913 0.000119 -0.000089 -89.793175 -1.359789 0.847147 121.602913
[L_mid_hand01]
25 103.859421 1.038730 8.195221 105.620987 -22.988335 -6.761933 104.187431
26 103.859421 1.038730 8.195221 105.621002 -22.988338 -6.761934 104.187431
[L_mid_hand02]
25 105.572853 -4.139662 -10.864139 -139.491974 20.327143 -21.528740 106.211075
26 105.572853 -4.139662 -10.864139 -139.491974 20.327143 -21.528740 106.211075
[L_mid_hand03]
25 104.641464 17.579376 -3.913581 -17.354424 7.254999 25.905664 106.179977
26 104.641464 17.579376 -3.913581 -17.354425 7.255000 25.905668 106.179977
[null_rope02_connect]
25 328.732849 0.000179 -0.000119 -116.942345 21.699120 31.080362 328.732849
26 328.732849 0.000179 -0.000119 -116.658676 21.984776 31.436930 328.732849
[Rope2_Seg01]
25 -0.000040 0.000134 0.000153 -35.151611 48.303787 72.052002 0.000207
26 -0.000038 0.000134 0.000153 -35.067375 46.897789 72.212456 0.000206
[Rope2_Seg02]
25 139.999741 -0.000060 -0.000119 -0.087519 -5.272051 3.442151 139.999756
26 139.999741 -0.000060 -0.000119 -0.048336 -4.961299 3.553707 139.999756
[Rope2_Seg03]
25 140.000107 0.000030 0.000000 0.038974 -6.139469 4.200484 140.000107
26 140.000107 0.000030 0.000000 0.184000 -5.318292 4.499712 140.000107
[Rope2_Seg04]
25 139.999802 0.000000 -0.000060 0.196224 -11.407336 7.816406 139.999802
26 139.999802 0.000000 -0.000060 0.404256 -12.345529 9.270622 139.999802
[Rope2_Seg05]
25 139.999985 -0.000060 0.000119 0.604664 -20.340239 12.904983 139.999985
26 139.999985 -0.000060 0.000119 -0.819726 -20.938562 11.301116 139.999985
[Rope2_Seg06]
25 139.999893 -0.000030 -0.000119 1.960265 -6.723366 4.555339 139.999893
26 139.999893 -0.000030 -0.000119 0.766417 -6.373683 3.531008 139.999893
[Rope2_Seg07]
25 139.999893 0.000060 -0.000060 1.612045 -3.223368 2.390958 139.999893
26 139.999893 0.000060 -0.000060 0.741304 -3.171697 1.881133 139.999893
[Rope2_Seg09]
25 121.338966 0.000089 -0.000060 33.793236 -1.359788 -0.847141 121.338966
26 121.338966 0.000089 -0.000060 33.793236 -1.359788 -0.847141 121.338966
[R_mid_hand01]
25 104.680779 11.144459 -10.335981 -44.070736 19.764444 21.986286 105.778534
26 104.680779 11.144459 -10.335981 -44.070736 19.764446 21.986286 105.778534
[R_mid_hand02]
25 104.070427 2.443552 8.231699 74.148849 -24.768806 7.320621 104.424065
26 104.070427 2.443552 8.231699 74.148865 -24.768812 7.320621 104.424065
[R_mid_hand03]
25 106.028137 -11.221827 -5.996406 -166.566208 8.416404 -28.789036 106.788818
26 106.028137 -11.221827 -5.996406 -166.566223 8.416407 -28.789045 106.788818
[spine02]
25 129.756927 0.001550 0.000119 -0.031994 -3.941140 -7.370806 129.756927
26 129.756927 0.001550 0.000119 -0.031994 -3.941140 -7.370806 129.756927
[spine03]
25 79.115440 0.000095 0.000000 1.907030 -2.965994 23.921791 79.115440
26 79.115295 0.000153 0.000000 1.907030 -2.965995 23.921799 79.115295
[pelvis]
25 169.435242 0.051022 0.000000 -1.021063 2.849161 -4.294340 169.435257
26 169.435242 0.051022 0.000000 0.001658 3.016139 -4.323353 169.435257
[null_rope03_connect]
25 -1.257226 -2.466202 137.391083 95.440781 -65.202614 -0.844639 137.418976
26 -1.257226 -2.466202 137.391083 92.974983 -65.312698 1.424114 137.418976
[null_rope04_connect]
25 -1.259640 -2.480268 -137.844437 95.440781 -65.202614 -0.844639 137.872513
26 -1.259640 -2.480268 -137.844437 92.974983 -65.312698 1.424114 137.872513
[Rope3_Seg01]
25 0.000000 0.000000 0.000000 -140.883499 -17.840822 -37.805355 0.000000
26 0.000000 0.000000 0.000000 -138.267883 -15.398617 -40.712170 0.000000
[Rope3_Seg02]
25 139.999924 -0.000119 0.000060 -55.675247 8.622093 -42.060787 139.999924
26 139.999924 -0.000119 0.000060 -59.509541 12.118344 -47.649876 139.999924
[Rope3_Seg03]
25 139.999924 -0.000119 0.000119 -47.495331 43.327332 -19.686321 139.999924
26 139.999924 -0.000119 0.000119 -43.706375 49.087563 -19.607529 139.999924
[Rope3_Seg04]
25 139.999924 0.000119 0.000000 -9.699768 33.823460 -0.827447 139.999924
26 139.999924 0.000119 0.000000 -5.950120 33.686310 -1.319916 139.999924
[Rope3_Seg05]
25 139.999924 -0.000238 0.000060 -0.049322 22.966652 1.313928 139.999924
26 139.999924 -0.000238 0.000060 1.562622 21.101450 0.061319 139.999924
[Rope3_Seg06]
25 139.999893 -0.000119 -0.000060 1.260838 7.321616 0.934787 139.999893
26 139.999893 -0.000119 -0.000060 1.671306 6.946888 0.241866 139.999893
[Rope3_Seg07]
25 139.999771 0.000060 -0.000119 1.195982 4.211938 0.446529 139.999771
26 139.999771 0.000060 -0.000119 1.432700 4.053052 0.022661 139.999771
[Rope3_Seg08]
25 139.999985 -0.000060 0.000000 0.995194 2.384002 0.200454 139.999985
26 139.999985 -0.000060 0.000000 1.128620 2.302114 -0.044917 139.999985
[Rope3_Seg09]
25 90.185997 -0.000179 -0.000060 89.793228 -1.359877 -0.847183 90.185997
26 90.185997 -0.000179 -0.000060 89.793228 -1.359877 -0.847183 90.185997
[R_rear_hand01]
25 103.366196 -6.073594 -10.757982 -160.090088 14.865479 -24.717995 104.101845
26 103.366196 -6.073594 -10.757982 -160.090088 14.865480 -24.717997 104.101845
[R_rear_hand02]
25 100.509819 12.039542 -7.992327 -35.711582 16.148796 24.170401 101.543350
26 100.509819 12.039542 -7.992327 -35.711582 16.148800 24.170403 101.543350
[R_rear_hand03]
25 101.539970 5.215704 5.435467 83.699936 -25.497597 6.583542 101.819031
26 101.539970 5.215704 5.435467 83.699944 -25.497602 6.583543 101.819031
[Rope4_Seg01]
25 -0.000010 -0.000003 -0.000153 46.957703 3.773981 -82.431053 0.000153
26 -0.000010 0.000000 -0.000153 47.676533 5.870083 -77.965309 0.000153
[Rope4_Seg02]
25 139.999985 0.000060 0.000119 0.626119 -66.346161 8.755136 139.999985
26 139.999985 0.000060 0.000119 -17.464121 -66.562225 30.347744 139.999985
[Rope4_Seg03]
25 139.999924 0.000000 -0.000238 33.585148 -36.184109 9.404683 139.999924
26 139.999924 0.000000 -0.000238 27.648148 -37.898003 14.464172 139.999924
[Rope4_Seg04]
25 139.999985 0.000000 0.000119 46.210213 -22.652178 18.127892 139.999985
26 139.999985 0.000000 0.000119 30.847679 -19.097717 14.993979 139.999985
[Rope4_Seg05]
25 139.999802 -0.000060 -0.000119 29.249340 -2.697035 30.718582 139.999802
26 139.999802 -0.000060 -0.000119 33.442116 -12.102756 31.522741 139.999802
[Rope4_Seg06]
25 139.999924 0.000000 0.000060 4.632763 4.444447 9.131632 139.999924
26 139.999924 0.000000 0.000060 7.289799 3.509588 12.515012 139.999924
[Rope4_Seg07]
25 139.999802 0.000000 0.000000 1.869502 2.781150 4.733930 139.999802
26 139.999802 0.000000 0.000000 2.607161 2.545228 6.000078 139.999802
[Rope4_Seg08]
25 139.999924 0.000000 0.000119 -0.679749 1.609835 2.559440 139.999924
26 139.999924 0.000000 0.000119 -0.376867 1.516231 3.177452 139.999924
[Rope4_Seg09]
25 90.185791 0.000060 0.000060 -135.617828 2.228885 0.850567 90.185791
26 90.185791 0.000060 0.000060 -135.617828 2.228885 0.850567 90.185791
[L_rear_hand01]
25 101.696655 -8.392275 -7.654577 -36.242058 -14.765300 157.809067 102.329041
26 101.696655 -8.392275 -7.654577 -36.242065 -14.765306 157.809082 102.329041
[L_rear_hand02]
25 102.726799 -1.568258 5.773216 83.814362 23.151863 173.698151 102.900848
26 102.726799 -1.568258 5.773216 83.814369 23.151869 173.698151 102.900848
[L_rear_hand03]
25 104.552910 9.721220 -10.420293 -159.518845 -14.052428 -157.569275 105.519653
26 104.552910 9.721220 -10.420293 -159.518845 -14.052429 -157.569290 105.519653
